<svg xmlns="http://www.w3.org/2000/svg" width="24" height="24" fill="#25D366" viewBox="0 0 24 24"><path d="M20.52 3.48A12.07 12.07 0 0012 0C5.37 0 0 5.37 0 12a12.07 12.07 0 003.48 8.52A12.07 12.07 0 0012 24c6.63 0 12-5.37 12-12a12.07 12.07 0 00-3.48-8.52zM12 22.08A10.08 10.08 0 012.08 12 10.08 10.08 0 0112 1.92 10.08 10.08 0 0121.92 12 10.08 10.08 0 0112 22.08zm5.2-7.2l-1.6-1.6a1 1 0 00-1.41 0l-.8.8a8.06 8.06 0 01-3.2-3.2l.8-.8a1 1 0 000-1.41l-1.6-1.6a1 1 0 00-1.41 0l-1.2 1.2a2 2 0 00-.59 1.41c0 5.06 4.11 9.17 9.17 9.17a2 2 0 001.41-.59l1.2-1.2a1 1 0 000-1.41z"/></svg>