<svg role="img" viewBox="0 0 24 24" xmlns="http://www.w3.org/2000/svg"><title>WhatsApp</title><path fill="#ffffff" d="M17.472 14.382c-.297-.149-1.758-.867-2.03-.967-.273-.099-.471-.148-.67.15-.197.297-.767.966-.94 1.164-.173.199-.347.223-.644.075-.297-.15-1.255-.462-2.39-1.475-.883-.788-1.48-1.761-1.653-2.059-.173-.297-.018-.458.13-.606.134-.133.298-.347.446-.52.149-.174.198-.298.298-.497.099-.198.05-.372-.025-.521-.075-.148-.669-1.611-.916-2.206-.242-.579-.487-.501-.669-.51-.173-.008-.372-.01-.571-.01-.198 0-.52.074-.792.372-.272.297-1.04 1.016-1.04 2.479 0 1.462 1.065 2.875 1.213 3.074.149.198 2.095 3.2 5.077 4.363.709.306 1.262.489 1.694.626.712.227 1.36.195 1.872.118.571-.085 1.758-.719 2.006-1.413.248-.695.248-1.29.173-1.413-.074-.124-.272-.198-.57-.347m-5.421 7.617h-.001a9.87 9.87 0 01-5.031-1.378l-.361-.214-3.741.982.998-3.648-.235-.374A9.86 9.86 0 011.671 11.99C1.669 6.477 6.477 1.67 12 1.67c2.652 0 5.144 1.037 7.019 2.921a9.825 9.825 0 012.922 7.017c-.003 5.523-4.811 10.33-10.33 10.33m8.413-18.243A11.815 11.815 0 0012 0C5.383 0 0 5.383 0 12c0 2.121.553 4.199 1.601 6.032L.057 23.25a1.001 1.001 0 001.225 1.225l5.218-1.545A11.88 11.88 0 0012 24c6.617 0 12-5.383 12-12 0-3.192-1.245-6.191-3.508-8.382"/></svg>